# xmcd
#
# Track frame offsets:
# 180
# 16241
# 34902
# 53550
# 70666
# 84757
# 101291
# 117805
# 131756
# 145576
# 150645
# 163903
# 179123
# 196369
#
# Disc length: 2782 seconds
#
#
# Revision: 0
# Processed by: cddbd v1.5.2PL0 Copyright (c) Steve Scherf et al.
# Submitted via: HACP 1.20
#
DISCID=b20adc0e
DTITLE=Ludwig Seuss - Zydeco Boogie
DYEAR=1994
DGENRE=Blues
TTITLE0=Jump Up
TTITLE1=Zydeco Groove
TTITLE2=Fingernails
TTITLE3=Country Girl
TTITLE4=Zydeco Boogie
TTITLE5=Goin' Home
TTITLE6=Ma Soul
TTITLE7=N.O. Jump
TTITLE8=Paper in my shoe
TTITLE9=Zydeco Groove Pt II
TTITLE10=Baby let me hold your hand
TTITLE11=Lead me on
TTITLE12=Rockin
TTITLE13=Bye, Bye
EXTD=United Sounds CPS 5014   LC7328   EAN 4016012050144
EXTT0=
EXTT1=
EXTT2=
EXTT3=
EXTT4=
EXTT5=
EXTT6=
EXTT7=
EXTT8=
EXTT9=
EXTT10=
EXTT11=
EXTT12=
EXTT13=
PLAYORDER=
